<svg width="17" height="15" viewBox="0 0 17 15" fill="none" xmlns="http://www.w3.org/2000/svg">
<path d="M16.3704 4.03643C15.9259 3.0141 15.2778 2.18566 14.4259 1.51586C13.7222 0.969448 12.9074 0.581669 11.963 0.352526C11.0185 0.123384 9.57407 0 7.66667 0H0.0185185V1.18096H0.981481C1.66667 1.18096 2.11111 1.2691 2.33333 1.44536C2.55556 1.62162 2.64815 2.07991 2.64815 2.82021V12.1622C2.64815 12.9025 2.53704 13.3784 2.31481 13.5546C2.09259 13.7309 1.64815 13.819 0.962963 13.819H0V15H4.88889V10.8754H5.87037C6.05556 12.1093 6.53704 13.0787 7.33333 13.7838C8.11111 14.4888 9.11111 14.8414 10.2963 14.8414C11.1667 14.8414 11.8519 14.6475 12.3704 14.2597C12.8889 13.8719 13.1481 13.3608 13.1481 12.7086C13.1481 12.1622 12.9444 11.7391 12.5556 11.4395C12.1667 11.1398 11.4444 10.8754 10.3889 10.6463L8.90741 10.3467C7.31482 10.0118 6.24074 9.60635 5.7037 9.13043C5.16667 8.65452 4.90741 7.9671 4.90741 7.0329C4.90741 6.09871 5.2963 5.30552 6.07407 4.74148C6.85185 4.17744 7.88889 3.89542 9.22222 3.89542C9.87037 3.89542 10.5 4.00117 11.0741 4.21269C11.6481 4.42421 12.2222 4.74148 12.7778 5.16451L13.2963 4.14219H14.1296V8.44301H13.1667C13.0185 7.2973 12.6111 6.41598 11.9259 5.81669C11.2593 5.19976 10.3519 4.90012 9.24074 4.90012C8.37037 4.90012 7.68518 5.07638 7.18518 5.41128C6.68518 5.74618 6.44444 6.22209 6.44444 6.82139C6.44444 7.2973 6.64815 7.68508 7.03704 7.9671C7.42593 8.26674 8.03704 8.47826 8.87037 8.6369L10.5926 8.9718C12.1111 9.27145 13.2037 9.67685 13.8333 10.188C14.463 10.6992 14.7778 11.4395 14.7778 12.3737C14.7778 12.691 14.7407 12.9906 14.6667 13.2726C15.4074 12.6381 15.9815 11.8273 16.3889 10.8049C16.7963 9.80023 17 8.7074 17 7.52644C17 6.23972 16.7778 5.09401 16.3333 4.07168L16.3704 4.03643Z" fill="#1D1D1F"/>
</svg>
