<svg width="26" height="26" viewBox="0 0 26 26" fill="none" xmlns="http://www.w3.org/2000/svg">
<path d="M14.9154 3.09082C16.9075 3.35187 18.7831 4.17461 20.3214 5.46212C20.7066 5.7845 20.7043 6.36342 20.3487 6.71758L18.5073 8.55196C18.1517 8.90612 17.5774 8.89931 17.1729 8.6019C16.1638 7.85919 14.9497 7.44373 13.6955 7.4119C12.4412 7.38007 11.2075 7.73342 10.1618 8.42399C9.11605 9.11456 8.30892 10.1089 7.84994 11.2721C7.39097 12.4353 7.30237 13.7109 7.59617 14.926C7.88997 16.1411 8.55194 17.2367 9.49225 18.0641C10.4326 18.8915 11.6057 19.4108 12.8524 19.5513C14.0991 19.6918 15.359 19.4469 16.4611 18.8497C17.5633 18.2525 18.4543 17.3319 19.0132 16.213H14.5576C14.3159 16.213 14.084 16.1173 13.913 15.947C13.742 15.7767 13.646 15.5457 13.646 15.3049V12.7054C13.646 12.4646 13.742 12.2336 13.913 12.0633C14.084 11.893 14.3159 11.7973 14.5576 11.7973H23.0962C23.4563 11.7973 23.7913 12.0084 23.8722 12.3592C24.2289 13.9053 23.7298 16.0438 23.6921 16.2005L23.6876 16.2187C23.0859 18.4469 21.7948 20.4255 19.9567 21.8308C18.5815 22.8818 16.9673 23.5787 15.2571 23.8599C13.5469 24.141 11.7934 23.9977 10.1521 23.4426C8.51078 22.8876 7.0322 21.9378 5.84731 20.6776C4.66243 19.4174 3.80783 17.8855 3.35919 16.2177C2.91055 14.5499 2.88173 12.7976 3.27528 11.116C3.66882 9.43448 4.47259 7.87555 5.61539 6.57732C6.75819 5.27909 8.20474 4.28163 9.82694 3.67329C11.4491 3.06495 13.1969 2.86563 14.9154 3.09082Z" stroke="#2CA592" stroke-linecap="round" stroke-linejoin="round"/>
</svg>
