<svg width="24" height="24" viewBox="0 0 24 24" fill="none" xmlns="http://www.w3.org/2000/svg">
<path d="M16.5 1H7.5C3.91015 1 1 3.91015 1 7.5V16.5C1 20.0899 3.91015 23 7.5 23H16.5C20.0899 23 23 20.0899 23 16.5V7.5C23 3.91015 20.0899 1 16.5 1Z" stroke="#2CA592" stroke-miterlimit="10"/>
<path d="M18 7C18.5523 7 19 6.55228 19 6C19 5.44772 18.5523 5 18 5C17.4477 5 17 5.44772 17 6C17 6.55228 17.4477 7 18 7Z" fill="#2CA592"/>
<path d="M12 6.5C8.965 6.5 6.5 8.965 6.5 12C6.5 15.035 8.965 17.5 12 17.5C15.035 17.5 17.5 15.035 17.5 12C17.5 8.965 15.035 6.5 12 6.5ZM12 16.5C9.52 16.5 7.5 14.48 7.5 12C7.5 9.52 9.52 7.5 12 7.5C14.48 7.5 16.5 9.52 16.5 12C16.5 14.48 14.48 16.5 12 16.5Z" fill="#2CA592"/>
</svg>
