<svg width="139" height="34" viewBox="0 0 139 34" fill="none" xmlns="http://www.w3.org/2000/svg">
<path d="M37.396 9.3875C36.3807 7.11067 34.9001 5.26566 32.9542 3.77394C31.3467 2.55701 29.4853 1.69339 27.3278 1.18306C25.1704 0.672739 21.8707 0.397949 17.5135 0.397949H0.0423032V3.02808H2.24207C3.80729 3.02808 4.82256 3.22436 5.3302 3.61692C5.83784 4.00947 6.04935 5.03012 6.04935 6.67886V27.4844C6.04935 29.1331 5.79553 30.193 5.2879 30.5856C4.78026 30.9781 3.76498 31.1744 2.19976 31.1744H0V33.8045H11.168V24.6187H13.4101C13.8331 27.3666 14.933 29.5257 16.7521 31.0959C18.5288 32.6661 20.8132 33.4512 23.5206 33.4512C25.5088 33.4512 27.074 33.0194 28.2585 32.1558C29.443 31.2922 30.0353 30.1538 30.0353 28.7013C30.0353 27.4844 29.5699 26.5422 28.6816 25.8749C27.7932 25.2075 26.1434 24.6187 23.7321 24.1084L20.3478 23.441C16.7098 22.6952 14.2562 21.7923 13.0294 20.7324C11.8026 19.6725 11.2103 18.1415 11.2103 16.061C11.2103 13.9804 12.0987 12.2139 13.8754 10.9577C15.6522 9.70155 18.0212 9.07346 21.067 9.07346C22.5476 9.07346 23.9859 9.30899 25.2973 9.78006C26.6087 10.2511 27.9201 10.9577 29.1892 11.8999L30.3737 9.62304H32.2773V19.2014H30.0776C29.7391 16.6498 28.8085 14.687 27.2432 13.3523C25.7203 11.9784 23.6475 11.311 21.1093 11.311C19.121 11.311 17.5558 11.7036 16.4136 12.4494C15.2714 13.1953 14.7215 14.2552 14.7215 15.5899C14.7215 16.6498 15.1868 17.5134 16.0752 18.1415C16.9636 18.8089 18.3596 19.2799 20.2632 19.6332L24.1974 20.3791C27.6663 21.0464 30.1622 21.9493 31.6005 23.0877C33.0388 24.2262 33.7579 25.8749 33.7579 27.9554C33.7579 28.662 33.6733 29.3294 33.5041 29.9575C35.1962 28.5443 36.5076 26.7385 37.4383 24.4617C38.369 22.2241 38.8343 19.7903 38.8343 17.1601C38.8343 14.2945 38.3267 11.7428 37.3114 9.46601L37.396 9.3875Z" fill="#2CA592"/>
<path d="M51.6416 0.633545H57.3948C61.879 0.633545 64.5018 2.98889 64.5018 7.03222C64.5018 11.0756 61.879 13.4309 57.3948 13.4309H51.6416V0.633545ZM62.9365 7.03222C62.9365 3.73474 60.9906 1.96824 57.3525 1.96824H53.1645V12.0962H57.3525C60.9906 12.0962 62.9365 10.3297 62.9365 7.03222Z" fill="#1D1D1F"/>
<path d="M70.2549 0.633545H79.3501V1.92898H71.7778V6.32562H78.8424V7.62106H71.7778V12.0177H79.3501V13.3131H70.2549V0.633545Z" fill="#1D1D1F"/>
<path d="M84.5114 12.8028V11.3896C86.2458 12.0569 87.8533 12.371 89.7993 12.371C92.1682 12.371 93.2258 11.7429 93.2258 10.4082C93.2258 9.15202 92.2528 8.40616 89.5454 7.54254C86.7111 6.63966 84.4268 5.85454 84.4268 3.65622C84.4268 1.61493 86.1189 0.437256 89.207 0.437256C90.7299 0.437256 92.2105 0.67279 94.1565 1.18311V2.59632C92.0836 1.96823 90.6876 1.73269 89.207 1.73269C87.1765 1.73269 86.0343 2.40004 86.0343 3.61697C86.0343 4.95166 87.5995 5.5405 90.0954 6.36487C93.5642 7.54254 94.8333 8.6417 94.8333 10.4082C94.8333 12.4495 92.8874 13.7057 89.8416 13.7057C87.7687 13.7057 86.2035 13.4701 84.5537 12.8421L84.5114 12.8028Z" fill="#1D1D1F"/>
<path d="M100.417 0.633545H101.94V13.3916H100.417V0.633545Z" fill="#1D1D1F"/>
<path d="M107.693 7.34621C107.693 2.94957 110.443 0.397949 115.223 0.397949C116.577 0.397949 117.973 0.594228 119.834 1.0653V2.4785C117.846 1.92892 116.492 1.73264 115.181 1.73264C111.289 1.73264 109.259 3.69543 109.259 7.38546C109.259 10.6437 110.824 12.4102 113.7 12.4102C116.577 12.4102 118.396 10.4867 118.65 6.91439H120.173V13.4701H118.861V9.42676H118.777C118.269 12.1354 116.366 13.7449 113.489 13.7449C109.851 13.7449 107.693 11.3503 107.693 7.42472V7.34621Z" fill="#1D1D1F"/>
<path d="M126.391 0.633545H128.167L137.347 11.4681V7.89585V0.672801H138.87V13.4309H137.093L127.914 2.59633V6.1686V13.3916H126.391V0.633545Z" fill="#1D1D1F"/>
<path d="M51.6842 32.9017V31.4885C53.4186 32.1558 55.0262 32.4699 56.9721 32.4699C59.3411 32.4699 60.3987 31.8418 60.3987 30.5071C60.3987 29.2509 59.4257 28.505 56.7183 27.6414C53.884 26.7385 51.5996 25.9534 51.5996 23.7551C51.5996 21.7138 53.2917 20.5361 56.3799 20.5361C57.9028 20.5361 59.3834 20.7717 61.3293 21.282V22.6952C59.2565 22.0671 57.8605 21.8316 56.3799 21.8316C54.3493 21.8316 53.2071 22.4989 53.2071 23.7158C53.2071 25.0505 54.7723 25.6394 57.2682 26.4637C60.7371 27.6414 62.0062 28.7406 62.0062 30.5071C62.0062 32.5484 60.0602 33.8046 57.0144 33.8046C54.9416 33.8046 53.3763 33.569 51.7265 32.9409L51.6842 32.9017Z" fill="#1D1D1F"/>
<path d="M71.1852 22.0669H66.3203V20.7715H77.5307V22.0669H72.6658V33.5296H71.1429V22.0669H71.1852Z" fill="#1D1D1F"/>
<path d="M85.2308 20.7715H87.0498L92.5916 33.5296H90.984L89.8842 30.978H82.2696L81.1697 33.5296H79.6045L85.2308 20.7715ZM89.3342 29.6433L86.1192 22.1847L82.8618 29.6433H89.3342Z" fill="#1D1D1F"/>
<path d="M99.486 22.0669H94.6211V20.7715H105.831V22.0669H100.967V33.5296H99.4437V22.0669H99.486Z" fill="#1D1D1F"/>
<path d="M111.162 20.7716H120.257V22.0671H112.685V26.4637H119.75V27.7591H112.685V32.1558H120.257V33.4512H111.162V20.6931V20.7716Z" fill="#1D1D1F"/>
</svg>
