<svg width="29" height="29" viewBox="0 0 29 29" fill="none" xmlns="http://www.w3.org/2000/svg">
<path d="M25.4596 19.5388C25.0487 18.415 22.5596 18.2579 21.3996 15.6842C21.3271 15.4908 21.3391 15.3579 21.5325 15.2371C22.4266 14.645 23.055 14.3188 23.4175 13.63C23.6833 13.1346 23.7196 12.5546 23.5141 12.0229C23.2362 11.2858 22.5354 10.8146 21.6775 10.8146C21.3754 10.8146 21.1337 10.875 21.0129 10.8992C21.025 10.3917 21.0129 9.86 20.9646 9.32833C20.8075 7.47958 20.155 6.50083 19.4783 5.7275C19.0796 5.28042 17.4966 3.625 14.5 3.625C11.5033 3.625 9.92039 5.28042 9.52164 5.7275C8.84498 6.50083 8.19248 7.47958 8.03539 9.32833C7.99914 9.86 7.98706 10.3917 7.98706 10.8992C7.85414 10.8629 7.62456 10.8146 7.32248 10.8146C6.47664 10.8146 5.76373 11.2738 5.48581 12.0229C5.28039 12.5425 5.31664 13.1346 5.58248 13.63C5.95706 14.3308 6.57331 14.645 7.46748 15.2371C7.66081 15.37 7.67289 15.4908 7.60039 15.6842C6.42831 18.2579 3.95123 18.415 3.54039 19.5388C3.35914 20.0221 3.47998 20.5658 3.92706 21.025C4.61581 21.7379 5.89664 21.9554 6.15039 22.1246C6.35581 22.2937 6.33164 22.8012 6.91164 23.2121C7.37081 23.5262 7.87831 23.5504 8.42206 23.5625C10.005 23.6229 10.3554 23.8888 10.9596 24.2633C11.7208 24.7346 12.76 25.375 14.5 25.375C16.24 25.375 17.2791 24.7346 18.0404 24.2633C18.6446 23.8888 18.995 23.6229 20.5779 23.5625C21.1216 23.5383 21.6291 23.5262 22.0883 23.2121C22.6804 22.8012 22.6562 22.2937 22.8496 22.1246C23.1033 21.9554 24.3841 21.7379 25.0729 21.025C25.52 20.5658 25.6408 20.0221 25.4596 19.5388ZM24.215 20.1792C23.7679 20.6504 22.6925 20.7833 22.1246 21.17C21.5446 21.6775 21.6412 22.0642 21.4116 22.2212C21.2546 22.33 20.9766 22.3421 20.5416 22.3663C18.85 22.4267 18.2337 22.7408 17.4966 23.2C15.7687 24.2633 14.8021 24.1667 14.5 24.1667C14.1979 24.1667 13.2312 24.2633 11.5154 23.1879C10.7783 22.7288 10.1741 22.4267 8.47039 22.3542C8.03539 22.3421 7.75748 22.3179 7.60039 22.2092C7.37081 22.0521 7.45539 21.6654 6.88748 21.1579C6.30748 20.7713 5.24414 20.6383 4.79706 20.1671C4.72456 20.0946 4.66414 19.9979 4.65206 19.9858C4.73664 19.865 5.14748 19.6233 5.44956 19.4542C6.39206 18.8983 7.84206 18.0767 8.72414 16.1313C9.03831 15.2854 8.76039 14.6088 8.14414 14.21C6.75456 13.3279 6.77873 13.2917 6.64581 13.05C6.59808 12.9574 6.5702 12.8558 6.56396 12.7517C6.55772 12.6477 6.57325 12.5435 6.60956 12.4458C6.75456 12.0592 7.15331 12.0229 7.31039 12.0229C7.53998 12.0229 7.52789 12.035 9.20748 12.47C9.18331 10.7783 9.15914 10.2346 9.23164 9.43708C9.36456 7.85417 9.92039 7.105 10.4158 6.53708C10.7541 6.17458 12.0712 4.80917 14.5 4.83333C16.9287 4.80917 18.2458 6.17458 18.5721 6.53708C19.0675 7.105 19.6233 7.85417 19.7562 9.43708C19.8287 10.2346 19.8046 10.7783 19.7804 12.47C21.4721 12.035 21.4479 12.0229 21.6775 12.0229C21.8466 12.0229 22.2333 12.0592 22.3783 12.4458C22.4629 12.6513 22.4508 12.8688 22.3421 13.05C22.2091 13.2917 22.2333 13.3158 20.8558 14.2221C20.2396 14.6208 19.9616 15.2975 20.2758 16.1433C21.1579 18.0888 22.6079 18.9104 23.5504 19.4663C23.8525 19.6475 24.2633 19.8771 24.3479 19.9979C24.3479 20.01 24.2754 20.1067 24.215 20.1792Z" fill="#2CA592"/>
</svg>
