<svg width="23" height="23" viewBox="0 0 23 23" fill="none" xmlns="http://www.w3.org/2000/svg">
<path d="M19.5 1H3.5C2.11929 1 1 2.11929 1 3.5V19.5C1 20.8807 2.11929 22 3.5 22H19.5C20.8807 22 22 20.8807 22 19.5V3.5C22 2.11929 20.8807 1 19.5 1Z" stroke="#2CA592" stroke-miterlimit="10"/>
<path d="M17.5051 10.16C17.3901 10.17 17.2751 10.175 17.1601 10.175C15.8501 10.175 14.6951 9.49998 14.0251 8.47998V14.25C14.0251 16.605 12.1151 18.515 9.76012 18.515C7.40512 18.515 5.49512 16.605 5.49512 14.25C5.49512 11.895 7.40512 9.98498 9.76012 9.98498C9.85012 9.98498 9.93512 9.99498 10.0251 9.99998V12.1C9.94012 12.09 9.85012 12.075 9.76012 12.075C8.56012 12.075 7.58512 13.05 7.58512 14.25C7.58512 15.45 8.56012 16.425 9.76012 16.425C10.9601 16.425 12.0251 15.48 12.0251 14.275C12.0251 14.23 12.0451 4.47998 12.0451 4.47998H14.0551C14.2451 6.27498 15.6951 7.69498 17.5051 7.81998V10.155V10.16Z" fill="#2CA592"/>
</svg>
