<svg width="23" height="23" viewBox="0 0 23 23" fill="none" xmlns="http://www.w3.org/2000/svg">
<path d="M18.5 1H4.5C2.567 1 1 2.567 1 4.5V18.5C1 20.433 2.567 22 4.5 22H18.5C20.433 22 22 20.433 22 18.5V4.5C22 2.567 20.433 1 18.5 1Z" stroke="#2CA592" stroke-miterlimit="10"/>
<path d="M12.8951 10.305L17.0001 5.5H15.7501L12.3301 9.505L9.51012 5.5H5.54012L10.1501 12.05L5.49512 17.5H6.74512L10.7151 12.855L13.9851 17.5H17.9551L12.8951 10.305ZM7.45512 6.5H8.98512L16.0401 16.5H14.5101L7.45512 6.5Z" fill="#2CA592"/>
</svg>
