<svg width="24" height="18" viewBox="0 0 24 18" fill="none" xmlns="http://www.w3.org/2000/svg">
<path d="M21.95 3.75C21.75 2.65 20.8 1.85 19.7 1.6C18.05 1.25 15 1 11.7 1C8.4 1 5.3 1.25 3.65 1.6C2.55 1.85 1.6 2.6 1.4 3.75C1.2 5 1 6.75 1 9C1 11.25 1.2 13 1.45 14.25C1.65 15.35 2.6 16.15 3.7 16.4C5.45 16.75 8.45 17 11.75 17C15.05 17 18.05 16.75 19.8 16.4C20.9 16.15 21.85 15.4 22.05 14.25C22.25 13 22.5 11.2 22.55 9C22.45 6.75 22.2 5 21.95 3.75Z" stroke="#2CA592" stroke-miterlimit="10"/>
<path d="M9 12.5V5.5L15.1 9L9 12.5Z" fill="#2CA592"/>
</svg>
